<svg xmlns="http://www.w3.org/2000/svg" viewBox="0 0 100 100" fill="none">
  <line x1="20" y1="80" x2="58" y2="42" stroke="white" stroke-width="3.5" stroke-linecap="round"/>
  <rect x="12" y="72" width="14" height="14" rx="2" stroke="white" stroke-width="3" transform="rotate(-45 19 79)"/>
  <path d="M68 14 L71.5 25.5 L83 29 L71.5 32.5 L68 44 L64.5 32.5 L53 29 L64.5 25.5 Z" fill="white"/>
  <path d="M84 54 L85.8 60 L91.5 61.8 L85.8 63.6 L84 69.5 L82.2 63.6 L76.5 61.8 L82.2 60 Z" fill="white" opacity="0.65"/>
  <path d="M46 18 L47.2 22 L51 23.2 L47.2 24.4 L46 28.5 L44.8 24.4 L41 23.2 L44.8 22 Z" fill="white" opacity="0.55"/>
</svg>
