<svg xmlns="http://www.w3.org/2000/svg" viewBox="0 0 100 100" fill="white">
  <path d="M50 8C26.8 8 8 27.1 8 50.6c0 18.8 11.9 34.7 28.4 40.3 2.1.4 2.8-0.9 2.8-2.1 0-1-.04-4.4-.06-8-11.5 2.5-13.9-5.6-13.9-5.6-1.9-4.8-4.6-6.1-4.6-6.1-3.7-2.6.3-2.5.3-2.5 4.1.3 6.3 4.3 6.3 4.3 3.7 6.3 9.6 4.5 11.9 3.4.4-2.7 1.4-4.5 2.6-5.5-9.1-1.1-18.7-4.6-18.7-20.5 0-4.5 1.6-8.2 4.2-11.1-.4-1-1.8-5.2.4-10.9 0 0 3.4-1.1 11.2 4.2 3.3-.9 6.7-1.4 10.2-1.4 3.5 0 6.9.5 10.2 1.4 7.7-5.3 11.1-4.2 11.1-4.2 2.2 5.7.8 9.9.4 10.9 2.6 2.9 4.2 6.6 4.2 11.1 0 15.9-9.6 19.4-18.8 20.4 1.5 1.3 2.8 3.8 2.8 7.7 0 5.6-.05 10.1-.05 11.4 0 1.1.7 2.5 2.9 2.1C80.1 85.2 92 69.4 92 50.6 92 27.1 73.2 8 50 8z"/>
</svg>
